<svg width="42" height="42" viewBox="0 0 42 42" fill="none" xmlns="http://www.w3.org/2000/svg">
<path fill-rule="evenodd" clip-rule="evenodd" d="M16.27 8.27272V9.19348C11.5629 11.1238 8.27421 17.4639 8.39354 22.9586L8.39351 26.0104C5.98381 29.1083 6.1256 33.7272 12.1375 33.7272H16.27C16.27 34.993 16.7633 36.207 17.6414 37.1021C18.5194 37.9972 19.7103 38.5 20.9521 38.5C22.1939 38.5 23.3848 37.9972 24.2627 37.1021C25.1407 36.207 25.634 34.993 25.634 33.7272H29.778C35.7784 33.7272 35.8654 29.0986 33.456 26.0008L33.523 22.9628C33.6443 17.4617 30.3492 11.1159 25.634 9.18836V8.27272C25.634 7.00691 25.1407 5.79295 24.2627 4.8979C23.3848 4.00284 22.1939 3.5 20.9521 3.5C19.7103 3.5 18.5194 4.00284 17.6414 4.8979C16.7633 5.79295 16.27 7.00691 16.27 8.27272ZM22.5127 8.27272C22.5127 8.27272 22.5117 8.33724 22.5098 8.3693C22.0016 8.30555 21.4837 8.27272 20.9584 8.27272C20.4287 8.27272 19.9066 8.30609 19.3944 8.37086C19.3923 8.33829 19.3914 8.30555 19.3914 8.27272C19.3914 7.8508 19.5558 7.44614 19.8485 7.14779C20.1411 6.84943 20.5382 6.68181 20.9521 6.68181C21.366 6.68181 21.7629 6.84943 22.0556 7.14779C22.3482 7.44614 22.5127 7.8508 22.5127 8.27272ZM19.3914 33.7272C19.3914 34.1491 19.5558 34.5539 19.8485 34.8523C20.1411 35.1505 20.5382 35.3181 20.9521 35.3181C21.366 35.3181 21.7629 35.1505 22.0556 34.8523C22.3482 34.5539 22.5127 34.1491 22.5127 33.7272H19.3914ZM29.778 30.5454C31.1114 30.5454 31.8306 28.9511 30.963 27.9191C30.5412 27.4178 30.3167 26.7799 30.3312 26.125L30.4024 22.8914C30.5216 17.4898 26.2586 11.4545 20.9584 11.4545C15.6593 11.4545 11.3968 17.4878 11.5141 22.8881L11.5844 26.1256C11.5987 26.7802 11.374 27.4179 10.9525 27.9191C10.0848 28.9511 10.8041 30.5454 12.1375 30.5454H29.778ZM29.7157 5.60353C30.2663 4.80923 31.3567 4.61167 32.151 5.16229C34.1595 6.55455 36.5682 9.89359 37.8833 13.847C38.1884 14.7641 37.6922 15.7549 36.7752 16.06C35.8581 16.365 34.8674 15.8689 34.5622 14.9518C33.407 11.4791 31.3646 8.87581 30.1571 8.03876C29.3628 7.48814 29.1652 6.39786 29.7157 5.60353ZM9.50394 5.16229C10.2983 4.61167 11.3885 4.80923 11.9391 5.60353C12.4898 6.39786 12.2922 7.48814 11.4979 8.03876C10.2904 8.87581 8.24789 11.4791 7.09265 14.9518C6.78757 15.8689 5.79681 16.365 4.87972 16.06C3.96263 15.7549 3.46651 14.7641 3.77158 13.847C5.08674 9.89359 7.49546 6.55455 9.50394 5.16229Z" fill="#3575DE"/>
</svg>
