<svg width="42" height="42" viewBox="0 0 42 42" fill="none" xmlns="http://www.w3.org/2000/svg">
<path d="M12.25 12.25C11.2835 12.25 10.5 13.0335 10.5 14C10.5 14.9665 11.2835 15.75 12.25 15.75H22.75C23.7165 15.75 24.5 14.9665 24.5 14C24.5 13.0335 23.7165 12.25 22.75 12.25H12.25Z" fill="#3575DE"/>
<path d="M10.5 21C10.5 20.0335 11.2835 19.25 12.25 19.25H22.75C23.7165 19.25 24.5 20.0335 24.5 21C24.5 21.9665 23.7165 22.75 22.75 22.75H12.25C11.2835 22.75 10.5 21.9665 10.5 21Z" fill="#3575DE"/>
<path d="M12.25 26.25C11.2835 26.25 10.5 27.0335 10.5 28C10.5 28.9665 11.2835 29.75 12.25 29.75H22.75C23.7165 29.75 24.5 28.9665 24.5 28C24.5 27.0335 23.7165 26.25 22.75 26.25H12.25Z" fill="#3575DE"/>
<path fill-rule="evenodd" clip-rule="evenodd" d="M9.84375 5.25H12.309C13.4927 4.14986 15.1328 3.5 16.8437 3.5H32.1562C35.4602 3.5 38.5 5.92359 38.5 9.33333V25.6667C38.5 29.0764 35.4602 31.5 32.1562 31.5H31.395C30.8542 34.4697 28.2865 36.75 25.1562 36.75H9.84375C6.31431 36.75 3.5 33.8511 3.5 30.3333V11.6667C3.5 8.14893 6.31431 5.25 9.84375 5.25ZM32.1562 28H31.5V11.6667C31.5 9.83663 30.7384 8.17406 29.5106 7H32.1562C33.9262 7 35 8.23275 35 9.33333V25.6667C35 26.7673 33.9262 28 32.1562 28ZM9.84375 8.75C8.29908 8.75 7 10.0298 7 11.6667V30.3333C7 31.9702 8.29908 33.25 9.84375 33.25H25.1562C26.701 33.25 28 31.9702 28 30.3333V11.6667C28 10.0298 26.701 8.75 25.1562 8.75H9.84375Z" fill="#3575DE"/>
</svg>
