<svg width="42" height="42" viewBox="0 0 42 42" fill="none" xmlns="http://www.w3.org/2000/svg">
<path fill-rule="evenodd" clip-rule="evenodd" d="M5.76271 5.76256C5.0793 6.44598 5.0793 7.55401 5.76271 8.23744L7.51272 9.98744C8.19614 10.6709 9.30417 10.6709 9.9876 9.98744C10.671 9.30401 10.671 8.19598 9.9876 7.51256L8.2376 5.76256C7.55417 5.07915 6.44614 5.07915 5.76271 5.76256ZM33.7627 5.76256C34.4461 5.07915 35.5542 5.07915 36.2376 5.76256C36.921 6.44598 36.921 7.55401 36.2376 8.23744L34.4876 9.98744C33.8042 10.6709 32.6961 10.6709 32.0127 9.98744C31.3294 9.30401 31.3294 8.19598 32.0127 7.51256L33.7627 5.76256ZM34.4876 25.0126L36.2376 26.7626C36.921 27.4459 36.921 28.554 36.2376 29.2374C35.5542 29.9208 34.4461 29.9208 33.7627 29.2374L32.0127 27.4874C31.3294 26.804 31.3294 25.6959 32.0127 25.0126C32.6961 24.3292 33.8042 24.3292 34.4876 25.0126ZM5.76271 29.2374C5.0793 28.554 5.0793 27.4459 5.76271 26.7626L7.51272 25.0126C8.19614 24.3292 9.30417 24.3292 9.9876 25.0126C10.671 25.6959 10.671 26.804 9.9876 27.4874L8.2376 29.2374C7.55417 29.9208 6.44614 29.9208 5.76271 29.2374ZM35.7248 19.25C36.6914 19.2502 37.4748 18.4667 37.4748 17.5002C37.475 16.5337 36.6916 15.7501 35.725 15.7501L35.0002 15.75C34.0336 15.7499 33.2502 16.5334 33.25 17.4999C33.25 18.4663 34.0335 19.25 35 19.25H35.7248ZM3.5 17.8626C3.50007 18.8291 4.28363 19.6126 5.25012 19.6124H5.97499C6.9415 19.6124 7.72494 18.8288 7.72487 17.8622C7.7248 16.8958 6.94125 16.1123 5.97475 16.1124L5.24988 16.1125C4.28339 16.1125 3.49993 16.8961 3.5 17.8626ZM27.014 26.1081C29.7264 24.2097 31.5 21.0619 31.5 17.5C31.5 11.701 26.799 7 21 7C15.201 7 10.5 11.701 10.5 17.5C10.5 21.0619 12.2736 24.2097 14.9859 26.1081C14.3697 26.862 14 27.8253 14 28.875C14 30.9923 15.5041 32.7584 17.5021 33.1628C17.5007 33.1917 17.5 33.2208 17.5 33.25C17.5 34.2165 18.2835 35 19.25 35H22.75C23.7165 35 24.5 34.2165 24.5 33.25C24.5 33.2208 24.4993 33.1917 24.4979 33.1628C26.4959 32.7584 28 30.9923 28 28.875C28 27.8253 27.6304 26.862 27.014 26.1081ZM21 24.5C24.8659 24.5 28 21.3659 28 17.5C28 13.634 24.8659 10.5 21 10.5C17.134 10.5 14 13.634 14 17.5C14 21.3659 17.134 24.5 21 24.5ZM21 28H20.8506H18.375C17.8918 28 17.5 28.3918 17.5 28.875C17.5 29.3582 17.8918 29.75 18.375 29.75H20.8506H21.1494H23.625C24.1082 29.75 24.5 29.3582 24.5 28.875C24.5 28.3918 24.1082 28 23.625 28H21.1494H21Z" fill="#3575DE"/>
</svg>
