<svg width="20" height="20" viewBox="0 0 20 20" fill="none" xmlns="http://www.w3.org/2000/svg">
<path d="M8.53817 6.96032C8.98153 6.74323 9.32895 6.36985 9.51356 5.91201C9.69817 5.45417 9.70694 4.94423 9.53817 4.48032M8.53817 6.96032L16.5482 19.8703C12.3569 19.3528 8.45744 17.4537 5.46582 14.473C2.4742 11.4922 0.560905 7.5997 0.0281672 3.41032C-0.0307535 2.98338 0.00300869 2.54875 0.127155 2.13603C0.251302 1.72331 0.462918 1.34219 0.747598 1.0186C1.03228 0.695013 1.38334 0.436565 1.77688 0.260848C2.17042 0.0851307 2.5972 -0.00372924 3.02817 0.000317303H6.02817C6.74286 -0.0100738 7.43779 0.235054 7.98779 0.691557C8.53779 1.14806 8.90673 1.78594 9.02817 2.49032M8.53817 6.96032L8.11817 7.24032C8.65999 8.21431 9.33294 9.10933 10.1182 9.90032C10.6712 10.4493 11.2751 10.9434 11.9213 11.3762L11.8798 11.4611L12.7782 11.9003L13.022 11.462L13.8296 11.8574L13.6269 12.3152L13.2312 13.2088L13.2096 13.2165L13.1897 13.2247C12.8859 13.0817 12.5885 12.9278 12.298 12.7635C11.2451 12.1682 10.282 11.4367 9.43151 10.592C9.42983 10.5903 9.42815 10.5887 9.42647 10.587C8.76992 9.93421 8.1806 9.21391 7.66908 8.43664M8.53817 6.96032L16.5482 18.936C12.6296 18.4062 8.99316 16.6004 6.2021 13.796C6.1918 13.7857 6.18152 13.7753 6.17125 13.765C6.15151 13.745 6.13182 13.7251 6.11218 13.705M9.53817 4.48032C9.37939 4.05274 9.2491 3.61512 9.14817 3.17032M9.53817 4.48032L8.6334 4.8163C8.63348 4.81649 8.63355 4.81668 8.63362 4.81687L8.96203 5.68605L8.95792 5.68796L8.11928 6.07733L8.10832 6.08241L7.98964 6.13752L7.92361 6.16817M9.53817 4.48032L8.63114 4.81029C8.4587 4.35295 8.31962 3.88371 8.21499 3.40625L8.215 3.40625L8.21378 3.40081C8.21248 3.39506 8.2112 3.38931 8.20991 3.38356L9.14817 3.17032M9.14817 3.17032C9.09817 2.95032 9.05817 2.72032 9.02817 2.49032M9.14817 3.17032L8.20984 3.38325C8.1572 3.14725 8.11312 2.90803 8.07763 2.66552L8.07601 2.65447L9.02817 2.49032M9.02817 2.49032L8.06911 2.61541L8.06592 2.60056C7.96875 2.14758 7.71734 1.74245 7.35472 1.45428M7.66908 8.43664C7.5202 8.2046 7.37852 7.96777 7.24428 7.72645L6.89051 7.09049M7.66908 8.43664C8.17042 9.21801 8.75333 9.94489 9.40849 10.6048L9.40847 10.6049L9.41365 10.61C10.2696 11.4597 11.2381 12.1879 12.292 12.7742L13.1723 13.2639L12.8082 14.1503L13.2118 13.2858L13.2134 13.2867L13.2135 13.2868L13.2399 13.2326L13.24 13.2325L13.262 13.2423L13.262 13.2423L14.1382 13.6303M7.66908 8.43664C7.38495 8.00489 7.12482 7.55558 6.89051 7.09049M6.89051 7.09049C6.86113 7.03219 6.83217 6.97364 6.80361 6.91484M6.89051 7.09049L6.79572 6.9201L6.80361 6.91484M6.80361 6.91484L7.56347 6.40827L7.92361 6.16817M6.80361 6.91484C6.77368 6.85323 6.74421 6.79136 6.71519 6.72923M7.92361 6.16817L6.71928 6.72733L6.71519 6.72923M7.92361 6.16817L7.98347 6.12827L8.03875 6.09141L8.09842 6.06219C8.10218 6.06035 8.10593 6.05849 8.10966 6.05661C8.32597 5.94731 8.49538 5.76308 8.58612 5.53804C8.6775 5.31143 8.68271 5.05928 8.60095 4.82921C8.60042 4.82772 8.59989 4.82624 8.59935 4.82475L13.8963 11.8901L13.6766 12.3395L13.2479 13.2164L14.1382 13.6303M7.35472 1.45428C7.35322 1.45309 7.35172 1.4519 7.35021 1.45071C7.24466 1.36732 7.13165 1.29532 7.01308 1.23536M7.35472 1.45428L7.34912 1.46104C7.3477 1.45986 7.34627 1.45868 7.34484 1.4575C7.24128 1.37203 7.13007 1.29776 7.01308 1.23536M7.35472 1.45428L7.34912 1.46104C7.70206 1.75398 7.94316 2.15894 8.03292 2.60764C8.03524 2.61927 8.03747 2.63093 8.03959 2.64262C8.04083 2.65192 8.04208 2.66122 8.04335 2.67053C8.07616 2.91152 8.11917 3.15492 8.17303 3.39194L6.07895 1.02032M7.01308 1.23536C6.71662 1.07722 6.38302 0.995264 6.04271 1.00021L6.03544 1.00032H6.02817H3.02817H3.01878L3.01878 1.00027C2.73147 0.997576 2.44694 1.05682 2.18458 1.17396C1.92222 1.2911 1.68818 1.4634 1.4984 1.67913C1.30861 1.89485 1.16753 2.14894 1.08477 2.42408C1.00201 2.69923 0.979498 2.98898 1.01878 3.27361L1.02023 3.28416L1.02018 3.28417C1.52134 7.22523 3.31212 10.889 6.11218 13.705M7.01308 1.23536C6.72544 1.08988 6.40507 1.01518 6.07895 1.02032M6.11218 13.705C3.34371 10.8836 1.58008 7.22822 1.0957 3.30279L1.0948 3.29556L1.09402 3.28833C1.0635 3.00747 1.09025 2.72333 1.17264 2.45308C1.25503 2.18284 1.39135 1.93211 1.57338 1.71604L1.58006 1.70811L1.5869 1.70032C1.77432 1.48698 2.00502 1.316 2.26366 1.19875C2.52229 1.0815 2.80293 1.02068 3.0869 1.02032L3.08817 1.02032L6.07895 1.02032M6.11218 13.705L6.07895 1.02032M6.07895 1.02032C6.07461 1.02039 6.07027 1.02047 6.06592 1.02056L6.08817 2.02032M6.07895 1.02032L16.6105 18.8703H16.6815H16.6842H16.9282H16.9296C17.1239 18.8706 17.3154 18.8426 17.4988 18.7885C17.7615 18.711 18.0072 18.5797 18.2197 18.4011C18.2207 18.4002 18.2217 18.3994 18.2228 18.3985C18.2361 18.3873 18.2492 18.3759 18.2622 18.3643C18.453 18.1935 18.609 17.9879 18.722 17.7587C18.7338 17.7349 18.745 17.7108 18.7558 17.6865C18.8576 17.4574 18.9154 17.2114 18.9263 16.9615C18.9264 16.9591 18.9265 16.9566 18.9266 16.9541C18.9278 16.9244 18.9283 16.8947 18.9282 16.865L18.9282 16.8603L18.9282 13.8701C18.9281 13.8675 18.9281 13.8649 18.928 13.8623L17.9382 13.8403M6.07895 1.02032H6.08817V2.02032M6.07895 1.02032L7.08817 2.81032M6.08817 2.02032H3.08817C2.94618 2.0205 2.80586 2.05091 2.67655 2.10953C2.54723 2.16816 2.43188 2.25365 2.33817 2.36032C2.24324 2.473 2.17214 2.60377 2.12917 2.74471C2.0862 2.88565 2.07225 3.03384 2.08817 3.18032C2.55058 6.92765 4.24736 10.4144 6.91088 13.0906C9.5744 15.7668 13.0531 17.4801 16.7982 17.9603C16.9447 17.9787 17.0935 17.9659 17.2348 17.9228C17.3761 17.8797 17.5068 17.8073 17.6182 17.7103C17.7248 17.6166 17.8103 17.5013 17.8689 17.3719C17.9276 17.2426 17.958 17.1023 17.9582 16.9603L17.9382 13.8403M6.08817 2.02032C6.32071 2.01514 6.54779 2.0912 6.73031 2.23539C6.91283 2.37958 7.03938 2.58289 7.08817 2.81032M17.9382 13.8403L18.9271 13.834C18.9094 13.3884 18.7433 12.9611 18.4546 12.6203C18.4534 12.619 18.4523 12.6177 18.4512 12.6164C18.1646 12.2799 17.775 12.0483 17.3438 11.9568C17.3418 11.9567 17.3398 11.9565 17.3378 11.9564C17.3179 11.9552 17.298 11.9537 17.2782 11.9519C17.0201 11.9291 16.7679 11.8657 16.6344 11.8321C16.6075 11.8253 16.5854 11.8198 16.569 11.816C16.5587 11.8137 16.5484 11.8115 16.5381 11.8092L16.3382 12.6903M17.9382 13.8403C17.9433 13.6078 17.8673 13.3807 17.7231 13.1982C17.5789 13.0157 17.3756 12.8891 17.1482 12.8403C16.8748 12.8003 16.6048 12.7503 16.3382 12.6903M16.3382 12.6903C15.8028 12.5688 15.2751 12.4152 14.7582 12.2303L14.1382 13.6303M16.3382 12.6903L16.5365 11.8088L13.5682 14.1503C13.6929 14.1057 13.8075 14.0368 13.9053 13.9475C14.0032 13.8582 14.0823 13.7504 14.1382 13.6303M6.71519 6.72923C6.71514 6.72913 6.7151 6.72904 6.71506 6.72894C6.71505 6.72893 6.71504 6.72891 6.71504 6.7289C6.71479 6.72836 6.71453 6.72783 6.71428 6.72729L6.7135 6.72766L6.71238 6.72818L6.70968 6.72944L5.80817 7.15032L6.71518 6.72922L6.71519 6.72923ZM7.08817 2.81032C7.12817 3.08365 7.17817 3.35365 7.23817 3.62032M7.08817 2.81032L7.69817 5.17032C7.50743 4.6655 7.35369 4.14746 7.23817 3.62032M7.23817 3.62032L7.23819 3.62031L7.23817 3.62032ZM16.5879 11.7215C16.5781 11.7193 16.5683 11.7171 16.5585 11.7149C16.0865 11.6077 15.6209 11.4736 15.1642 11.3133L16.5879 11.7215Z" stroke="#242424" stroke-width="2"/>
</svg>
