<svg width="36" height="36" viewBox="0 0 36 36" fill="none" xmlns="http://www.w3.org/2000/svg">
<g clip-path="url(#clip0_183_323)">
<path d="M35.9997 1.3536C35.9997 0.643445 35.4234 0.0683594 34.7139 0.0683594H21.7168V5.24701C22.0392 5.06716 22.4104 4.9652 22.8053 4.9652C24.0444 4.9652 25.0496 5.96976 25.0496 7.20979C25.0496 8.44862 24.045 9.45374 22.8053 9.45374C22.4104 9.45374 22.0392 9.35123 21.7168 9.17256V14.3507H26.8955C26.7162 14.6731 26.6136 15.0442 26.6136 15.4388C26.6136 16.6788 27.6183 17.6834 28.8582 17.6834C30.0976 17.6834 31.1022 16.6788 31.1022 15.4388C31.1022 15.0442 30.9997 14.6731 30.821 14.3507H35.9997V1.3536Z" fill="#3575DE"/>
<path d="M30.2074 19.3621H23.6828C23.4543 19.3621 23.2429 19.4829 23.1273 19.6788L23.1336 19.668L23.1261 19.68C23.0671 19.7803 23.0373 19.8936 23.0373 20.0065C23.0373 20.1141 23.0648 20.2229 23.1187 20.3203L23.5299 21.0609C23.6221 21.2275 23.6673 21.4028 23.668 21.5941C23.6674 21.8896 23.554 22.1622 23.3455 22.3719C23.1359 22.5803 22.8627 22.6938 22.5677 22.6949C22.2722 22.6937 21.999 22.5803 21.7888 22.3719L21.7896 22.3731C21.5805 22.1623 21.4675 21.8891 21.4669 21.5941C21.4675 21.4034 21.5127 21.2276 21.6046 21.0604L22.0161 20.3204C22.0703 20.223 22.0975 20.1148 22.0975 20.0065C22.0975 19.8937 22.0676 19.7804 22.0077 19.6789C21.8918 19.4825 21.6804 19.3622 21.4523 19.3622H16.5703V16.7477C17.4526 16.7339 18.286 16.3863 18.9102 15.7609C19.5493 15.1234 19.9034 14.2683 19.9027 13.3652C19.9033 12.4608 19.5491 11.6057 18.9102 10.9689C18.2865 10.3434 17.4529 9.9963 16.5703 9.98258V5.72474C16.5701 5.36854 16.2814 5.07983 15.9251 5.07983H2.42916C1.782 5.07934 1.16775 5.33303 0.711282 5.79062C0.257978 6.24428 0.000563431 6.86683 9.31361e-07 7.50941V33.503C-0.000561569 34.1496 0.253688 34.7635 0.711282 35.2206C1.16494 35.6736 1.78657 35.9313 2.42916 35.9319H28.4255C29.0664 35.9313 29.6884 35.6736 30.1414 35.2206C30.5991 34.7635 30.8528 34.1501 30.8522 33.503V20.007C30.8523 19.6508 30.5636 19.3621 30.2074 19.3621ZM1.99477 7.50941C1.99477 7.36049 2.06409 7.25917 2.12077 7.20243C2.17948 7.144 2.28052 7.07411 2.42916 7.07411H14.5754V12.2493C14.5754 12.3742 14.6416 12.4893 14.749 12.5529C14.8039 12.5849 14.8655 12.601 14.9273 12.601C14.9863 12.601 15.045 12.5867 15.0983 12.5569L15.8386 12.1457C16.0474 12.0299 16.2747 11.971 16.5142 11.971C16.8861 11.971 17.2363 12.1159 17.4995 12.3788C17.763 12.6428 17.9079 12.9933 17.9079 13.365C17.9079 13.7367 17.763 14.0867 17.5001 14.3501C17.2363 14.6136 16.8861 14.7585 16.5142 14.7585C16.2745 14.7585 16.0474 14.6995 15.8389 14.5838L15.0981 14.1725C15.0451 14.1428 14.9861 14.1284 14.9274 14.1284C14.8655 14.1284 14.8039 14.1445 14.749 14.1771C14.6417 14.2401 14.5755 14.3552 14.5755 14.4801V19.6553H11.371C11.3773 19.5757 11.3804 19.4961 11.3804 19.4177C11.3804 18.5901 11.0583 17.8129 10.4738 17.2293C9.88995 16.6445 9.11271 16.3227 8.28513 16.3227C7.45784 16.3227 6.68067 16.6446 6.09701 17.2287C5.51201 17.8123 5.18984 18.5901 5.19012 19.4171C5.19012 19.4961 5.19321 19.5752 5.19954 19.6554H1.99477V7.50941ZM14.5755 33.9376H2.42916C2.28052 33.9376 2.17948 33.8677 2.12217 33.8111C2.06409 33.7526 1.99477 33.6512 1.99477 33.503V21.3558H7.1697C7.29429 21.3558 7.40967 21.29 7.47295 21.1829C7.53624 21.0752 7.53799 20.9423 7.47731 20.8335L7.06641 20.093C6.95039 19.8839 6.89168 19.6565 6.8914 19.4177C6.89168 19.0459 7.03695 18.6955 7.29921 18.432C7.56345 18.1691 7.91374 18.0236 8.28513 18.0236C8.65652 18.0236 9.00682 18.1691 9.27021 18.4314C9.53339 18.6954 9.67859 19.0459 9.67887 19.417C9.67859 19.657 9.61952 19.8844 9.5047 20.0923L9.09288 20.8329C9.03213 20.9423 9.03396 21.0752 9.09724 21.1822C9.16052 21.2899 9.27598 21.3558 9.4005 21.3558H14.5754V24.5613C14.4958 24.5551 14.4165 24.5522 14.3381 24.5522C13.5102 24.5522 12.733 24.8741 12.1499 25.4582C11.5646 26.0424 11.2428 26.8196 11.2433 27.6466C11.2428 28.4736 11.5646 29.2514 12.1494 29.835C12.733 30.4198 13.5103 30.7416 14.3381 30.7416C14.4172 30.7416 14.4965 30.7388 14.5755 30.7325V33.9376ZM28.8579 33.503C28.8579 33.6512 28.7881 33.7521 28.7308 33.8099C28.6724 33.8678 28.5716 33.9377 28.4233 33.9377H16.2771V28.7625C16.2771 28.6376 16.2113 28.5225 16.1035 28.4595C16.0485 28.4268 15.987 28.4109 15.9251 28.4109C15.8664 28.4109 15.8074 28.4252 15.7544 28.4549L15.0131 28.8662C14.8049 28.9819 14.5778 29.0409 14.3381 29.0409C13.9667 29.0409 13.6164 28.8955 13.353 28.633C13.0898 28.3696 12.9446 28.0191 12.9443 27.6473C12.9446 27.2751 13.0899 26.9252 13.3527 26.6617C13.6159 26.3988 13.9661 26.2533 14.3381 26.2528C14.5761 26.2528 14.8035 26.3117 15.0131 26.4274L15.7542 26.8392C15.8075 26.869 15.8662 26.8834 15.9252 26.8834C15.987 26.8834 16.0486 26.8673 16.1036 26.8353C16.211 26.7717 16.2771 26.6566 16.2771 26.5317V21.3559H19.4818C19.4756 21.4355 19.4724 21.5152 19.4724 21.5941C19.4721 22.4206 19.794 23.1978 20.3785 23.782C20.9626 24.3673 21.7401 24.6892 22.5674 24.6892C23.3947 24.6892 24.172 24.3673 24.7562 23.7826C25.3409 23.199 25.6622 22.4218 25.6622 21.5942C25.6622 21.5152 25.6594 21.4361 25.6531 21.356H28.8581V33.503H28.8579Z" fill="#3575DE"/>
</g>
<defs>
<clipPath id="clip0_183_323">
<rect width="36" height="36" fill="white"/>
</clipPath>
</defs>
</svg>
