<svg width="46" height="46" viewBox="0 0 46 46" fill="none" xmlns="http://www.w3.org/2000/svg">
<path d="M30.666 17.25C32.9873 20.732 32.9873 25.268 30.666 28.75" stroke="#3575DE" stroke-width="3.4" stroke-linecap="round"/>
<path d="M38.334 15.3334C40.7471 20.1597 40.7471 25.8403 38.334 30.6667" stroke="#3575DE" stroke-width="3.4" stroke-linecap="round"/>
<path d="M14.2163 16.5837L20.2011 11.5963C22.0737 10.0358 24.9167 11.3674 24.9167 13.8049V32.195C24.9167 34.6327 22.0737 35.9642 20.2011 34.4038L14.2163 29.4164C13.6996 28.9858 13.0483 28.75 12.3758 28.75H8.625C7.03718 28.75 5.75 27.4628 5.75 25.875V20.125C5.75 18.5372 7.03718 17.25 8.625 17.25H12.3758C13.0483 17.25 13.6996 17.0142 14.2163 16.5837Z" stroke="#3575DE" stroke-width="3.4"/>
</svg>
