<svg width="24" height="23" viewBox="0 0 24 23" fill="none" xmlns="http://www.w3.org/2000/svg">
<path d="M23.9815 9.16208C24.1014 8.56254 23.6218 7.8431 23.0222 7.8431L16.1875 6.88383L13.0699 0.648645C12.95 0.40883 12.8301 0.288922 12.5903 0.169014C11.9908 -0.190708 11.2713 0.049107 10.9116 0.648645L7.9139 6.88383L1.07917 7.8431C0.719445 7.8431 0.47963 7.963 0.359723 8.20282C-0.119908 8.68245 -0.119908 9.40189 0.359723 9.88152L5.27593 14.6778L4.07686 21.5126C4.07686 21.7524 4.07686 21.9922 4.19676 22.232C4.55649 22.8315 5.27593 23.0714 5.87547 22.7116L11.9908 19.4741L18.106 22.7116C18.2259 22.8315 18.4658 22.8315 18.7056 22.8315C18.8255 22.8315 18.8255 22.8315 18.9454 22.8315C19.5449 22.7116 20.0246 22.1121 19.9046 21.3926L18.7056 14.5579L23.6218 9.76161C23.8616 9.64171 23.9815 9.40189 23.9815 9.16208Z" fill="#FFE4A1"/>
</svg>
