<svg width="60" height="60" viewBox="0 0 60 60" fill="none" xmlns="http://www.w3.org/2000/svg">
<circle cx="30" cy="30" r="30" fill="white"/>
<path fill-rule="evenodd" clip-rule="evenodd" d="M13.7373 29.0966C21.835 25.5685 27.2344 23.2422 29.9353 22.118C37.6497 18.911 39.2609 18.3541 40.2971 18.3334C40.6813 18.3259 41.0582 18.4391 41.3747 18.6572C41.5968 18.8487 41.7384 19.117 41.771 19.4084C41.8268 19.7708 41.8425 20.1383 41.8177 20.5041C41.4006 24.9079 39.5899 35.552 38.6703 40.4713C38.2817 42.5436 37.5149 43.2508 36.7715 43.3207C35.1602 43.4684 33.922 42.2535 32.3677 41.2303C29.9224 39.6268 28.5417 38.6398 26.1688 37.0648C23.4255 35.2515 25.2052 34.2646 26.7672 32.6429C27.1765 32.2181 34.2795 25.7524 34.4194 25.1669C34.4378 25.0805 34.4357 24.9909 34.4132 24.9054C34.3907 24.8199 34.3485 24.7409 34.2899 24.6748C34.2048 24.6216 34.1086 24.589 34.0087 24.5796C33.9089 24.5701 33.8083 24.5841 33.7148 24.6204C33.4713 24.6739 29.5666 27.2548 22.0008 32.3632C20.8921 33.1248 19.8879 33.4961 18.9881 33.4771C17.996 33.4538 16.0894 32.9149 14.6698 32.4409C12.9317 31.8762 11.5613 31.5783 11.6701 30.6276C11.734 30.1302 12.4231 29.6199 13.7373 29.0966Z" fill="#3575DE"/>
</svg>
