<svg width="60" height="60" viewBox="0 0 60 60" fill="none" xmlns="http://www.w3.org/2000/svg">
<g clip-path="url(#clip0_100_178)">
<path d="M30 60C46.5685 60 60 46.5685 60 30C60 13.4315 46.5685 0 30 0C13.4315 0 0 13.4315 0 30C0 46.5685 13.4315 60 30 60Z" fill="white"/>
<path d="M31.1 41.0623C19.4684 41.0623 12.8377 33.0865 12.5586 19.814H18.3828C18.5753 29.5535 22.8702 33.6809 26.2721 34.5321V19.814H31.7614V28.214C35.1102 27.854 38.6516 24.0279 39.8405 19.814H45.3298C44.4144 25.0019 40.5856 28.8307 37.8646 30.4047C39.9927 31.4615 41.8723 32.9579 43.379 34.7952C44.8857 36.6324 45.9853 38.7685 46.6051 41.0623H40.566C39.2684 37.0214 36.0339 33.8958 31.7614 33.4716V41.0623H31.1Z" fill="#3575DE"/>
</g>
<defs>
<clipPath id="clip0_100_178">
<rect width="60" height="60" fill="white"/>
</clipPath>
</defs>
</svg>
