<svg width="42" height="42" viewBox="0 0 42 42" fill="none" xmlns="http://www.w3.org/2000/svg">
<path fill-rule="evenodd" clip-rule="evenodd" d="M3.5 14C3.5 10.134 6.634 7 10.5 7H31.5C35.3659 7 38.5 10.134 38.5 14V15.75V26.25V28C38.5 31.8659 35.3659 35 31.5 35H10.5C6.634 35 3.5 31.8659 3.5 28V14ZM31.5 10.5C33.433 10.5 35 12.067 35 14H31.5C27.6341 14 24.5 17.134 24.5 21C24.5 24.8659 27.6341 28 31.5 28H35C35 29.9331 33.433 31.5 31.5 31.5H10.5C8.567 31.5 7 29.9331 7 28V14C7 12.067 8.567 10.5 10.5 10.5H31.5ZM31.5 17.5H35V24.5H31.5C29.5669 24.5 28 22.9331 28 21C28 19.0669 29.5669 17.5 31.5 17.5ZM31.5 22.75C32.4665 22.75 33.25 21.9665 33.25 21C33.25 20.0335 32.4665 19.25 31.5 19.25C30.5335 19.25 29.75 20.0335 29.75 21C29.75 21.9665 30.5335 22.75 31.5 22.75Z" fill="#3575DE"/>
</svg>
