<svg width="46" height="46" viewBox="0 0 46 46" fill="none" xmlns="http://www.w3.org/2000/svg">
<path fill-rule="evenodd" clip-rule="evenodd" d="M23 17.25C19.8243 17.25 17.25 19.8243 17.25 23C17.25 26.1757 19.8243 28.75 23 28.75C26.1757 28.75 28.75 26.1757 28.75 23C28.75 19.8243 26.1757 17.25 23 17.25ZM21.0833 23C21.0833 21.9414 21.9414 21.0833 23 21.0833C24.0586 21.0833 24.9167 21.9414 24.9167 23C24.9167 24.0586 24.0586 24.9167 23 24.9167C21.9414 24.9167 21.0833 24.0586 21.0833 23Z" fill="#3575DE"/>
<path fill-rule="evenodd" clip-rule="evenodd" d="M41.8415 21.6214C37.4562 13.7078 30.3074 9.58337 23.0007 9.58337C15.6939 9.58337 8.54508 13.7078 4.15988 21.6214C3.7312 22.3951 3.7259 23.3491 4.14121 24.1263C8.45666 32.2025 15.646 36.4167 23.0007 36.4167C30.3553 36.4167 37.5447 32.2025 41.8601 24.1263C42.2754 23.3491 42.2701 22.3951 41.8415 21.6214ZM23.0007 32.5834C17.3675 32.5834 11.5783 29.4638 7.84313 22.9017C11.6322 16.476 17.3909 13.4167 23.0007 13.4167C28.6104 13.4167 34.3692 16.476 38.1582 22.9017C34.423 29.4638 28.6337 32.5834 23.0007 32.5834Z" fill="#3575DE"/>
</svg>
