<svg width="60" height="60" viewBox="0 0 60 60" fill="none" xmlns="http://www.w3.org/2000/svg">
<path d="M30 60C46.5685 60 60 46.5685 60 30C60 13.4315 46.5685 0 30 0C13.4315 0 0 13.4315 0 30C0 46.5685 13.4315 60 30 60Z" fill="white"/>
<path d="M15.3242 44.9303L17.4312 37.2392C15.8012 34.4087 15.1504 31.1196 15.5797 27.8818C16.0091 24.6439 17.4946 21.638 19.806 19.3303C22.1174 17.0225 25.1255 15.5417 28.3641 15.1175C31.6027 14.6932 34.8907 15.3491 37.7186 16.9836C40.5464 18.6181 42.7561 21.1399 44.005 24.1579C45.2539 27.1759 45.4723 30.5217 44.6264 33.6765C43.7804 36.8312 41.9174 39.6188 39.326 41.6071C36.7347 43.5954 33.5598 44.6732 30.2935 44.6736C27.8159 44.6722 25.3781 44.0505 23.2024 42.8652L15.3242 44.9303ZM23.5568 40.1861L24.0089 40.4652C25.91 41.591 28.0785 42.1857 30.288 42.1871C33.024 42.1876 35.6826 41.2789 37.8459 39.6037C40.0092 37.9285 41.5544 35.5819 42.2387 32.9328C42.923 30.2837 42.7074 27.4824 41.626 24.9691C40.5446 22.4558 38.6586 20.3732 36.2646 19.0486C33.8705 17.7241 31.1042 17.2327 28.4004 17.6517C25.6966 18.0708 23.2088 19.3765 21.328 21.3635C19.4472 23.3506 18.2801 25.9064 18.0101 28.6291C17.7402 31.3518 18.3828 34.087 19.8368 36.4047L20.1159 36.8708L18.8684 41.4224L23.5568 40.1861Z" fill="#3575DE"/>
<path fill-rule="evenodd" clip-rule="evenodd" d="M37.7698 33.3601C37.6777 33.2038 37.4294 33.1117 37.0582 32.9276C36.687 32.7434 34.8647 31.8448 34.5243 31.7192C34.1838 31.5936 33.9382 31.535 33.687 31.9062C33.4359 32.2773 32.7298 33.1117 32.515 33.3601C32.3001 33.6085 32.0796 33.6392 31.7112 33.4522C30.6235 33.0154 29.6197 32.3931 28.7447 31.6131C27.9339 30.8631 27.2389 29.997 26.6824 29.0429C26.4647 28.6717 26.6573 28.4848 26.8443 28.2866C27.0312 28.0885 27.2154 27.8513 27.4024 27.6364C27.5558 27.4492 27.6809 27.2405 27.7736 27.0169C27.8224 26.9143 27.8452 26.8013 27.8398 26.6879C27.8344 26.5745 27.8011 26.4641 27.7428 26.3666C27.6508 26.1824 26.9056 24.3573 26.5987 23.615C26.2917 22.8727 25.9931 22.9899 25.7615 22.9759C25.5298 22.962 25.2982 22.9759 25.0526 22.9759C24.8619 22.9791 24.6739 23.0222 24.5009 23.1025C24.3279 23.1827 24.1736 23.2984 24.048 23.442C23.6318 23.8366 23.3017 24.313 23.0784 24.8413C22.855 25.3695 22.7434 25.9383 22.7503 26.5117C22.7503 28.3369 24.0787 30.1006 24.2657 30.349C24.4526 30.5973 26.8805 34.3424 30.6005 35.9471C31.2912 36.2451 31.9973 36.5059 32.7159 36.7285C33.4725 36.9582 34.2721 37.0089 35.0517 36.8764C35.7633 36.7703 37.2452 35.9778 37.5633 35.1127C37.8815 34.2476 37.8619 33.5136 37.7698 33.3601Z" fill="#3575DE"/>
</svg>
